<svg width="50" height="50" viewBox="0 0 50 50" fill="none" xmlns="http://www.w3.org/2000/svg">
  <rect width="50" height="50" rx="8" fill="#3776AB"/>
  <path d="M25 8C17 8 17.5 11.5 17.5 11.5V15H25.5V16H13.5C13.5 16 9 15.5 9 24C9 32.5 13 32 13 32H16V27.8C16 27.8 15.8 23.5 20 23.5H30C30 23.5 34 23.5 34 19.5V13C34 13 34.5 8 25 8ZM20.5 11.5C21.6 11.5 22.5 12.4 22.5 13.5C22.5 14.6 21.6 15.5 20.5 15.5C19.4 15.5 18.5 14.6 18.5 13.5C18.5 12.4 19.4 11.5 20.5 11.5Z" fill="#FFD43B"/>
  <path d="M25 42C33 42 32.5 38.5 32.5 38.5V35H24.5V34H36.5C36.5 34 41 34.5 41 26C41 17.5 37 18 37 18H34V22.2C34 22.2 34.2 26.5 30 26.5H20C20 26.5 16 26.5 16 30.5V37C16 37 15.5 42 25 42ZM29.5 38.5C28.4 38.5 27.5 37.6 27.5 36.5C27.5 35.4 28.4 34.5 29.5 34.5C30.6 34.5 31.5 35.4 31.5 36.5C31.5 37.6 30.6 38.5 29.5 38.5Z" fill="white"/>
</svg>
