<svg width="54" height="33" viewBox="0 0 54 33" fill="none" xmlns="http://www.w3.org/2000/svg">
  <path fill-rule="evenodd" clip-rule="evenodd" d="M27 0C19.8 0 15.3 3.6 13.5 10.8C16.2 7.2 19.35 5.85 22.95 6.75C25.004 7.233 26.462 8.706 28.08 10.36C30.72 13.04 33.77 16.2 40.5 16.2C47.7 16.2 52.2 12.6 54 5.4C51.3 9 48.15 10.35 44.55 9.45C42.496 8.967 41.038 7.494 39.42 5.84C36.78 3.16 33.73 0 27 0ZM13.5 16.2C6.3 16.2 1.8 19.8 0 27C2.7 23.4 5.85 22.05 9.45 22.95C11.504 23.433 12.962 24.906 14.58 26.56C17.22 29.24 20.27 32.4 27 32.4C34.2 32.4 38.7 28.8 40.5 21.6C37.8 25.2 34.65 26.55 31.05 25.65C28.996 25.167 27.538 23.694 25.92 22.04C23.28 19.36 20.23 16.2 13.5 16.2Z" fill="#06B6D4"/>
</svg>
